PathFileType	4	(X/Y/Z)	C:\Git\research_data\Projects\torsion_deformities_healthy_kinematics\simulations\P01\pre\dynamic07_l\marker_experimental.trc
DataRate	CameraRate	NumFrames	NumMarkers	Units	OrigDataRate	OrigDataStartFrame	OrigNumFrames
200	200	6	34	mm	200	402	802
Frame#	Time	C7			T10			CLAV			STRN			RBAK			LASI			RASI			SACR			LT1			LT2			LT3			LS1			LS2			LS3			LHEE			LTOE			RT1			RT2			RT3			RS1			RS2			RS3			RHEE			RTOE			LKNE			LANK			RKNE			RANK			LAJC			LKJC			RAJC			RKJC			RHJC			LHJC		
		X1	Y1	Z1	X2	Y2	Z2	X3	Y3	Z3	X4	Y4	Z4	X5	Y5	Z5	X6	Y6	Z6	X7	Y7	Z7	X8	Y8	Z8	X9	Y9	Z9	X10	Y10	Z10	X11	Y11	Z11	X12	Y12	Z12	X13	Y13	Z13	X14	Y14	Z14	X15	Y15	Z15	X16	Y16	Z16	X17	Y17	Z17	X18	Y18	Z18	X19	Y19	Z19	X20	Y20	Z20	X21	Y21	Z21	X22	Y22	Z22	X23	Y23	Z23	X24	Y24	Z24	X25	Y25	Z25	X26	Y26	Z26	X27	Y27	Z27	X28	Y28	Z28	X29	Y29	Z29	X30	Y30	Z30	X31	Y31	Z31	X32	Y32	Z32	X33	Y33	Z33	X34	Y34	Z34	

402	2.005000	-106.224670	1005.040527	354.178772	-127.917267	831.955383	339.723297	14.703055	973.229858	352.084564	67.046349	845.210571	351.067108	-121.381844	940.055359	450.313354	17.529316	672.132080	244.830994	-9.151949	664.211304	454.495789	-143.642746	718.607056	331.012085	34.010189	501.630890	208.649826	2.725645	408.376892	208.236206	135.243881	440.962402	254.337708	93.321632	261.885956	227.625198	21.354715	164.933502	198.693436	153.654846	189.254684	251.328751	68.901749	39.429989	261.357635	205.768738	51.936127	297.312408	-95.613960	503.168091	488.371246	-167.274826	442.068909	468.222900	-34.632339	400.818634	496.483246	-165.727280	271.528046	485.383087	-287.477997	271.565094	503.738007	-183.757355	177.632950	476.586243	-365.738068	131.673737	440.773315	-259.170929	41.363667	421.278229	66.691078	352.716125	244.394669	118.345345	41.208843	252.046310	-120.004272	333.927673	470.429657	-330.758087	100.329926	469.532104	116.008247	40.036453	285.841583	68.834564	349.860840	295.755341	-327.330536	104.177666	433.018616	-108.278809	327.107941	418.338928	-73.691123	610.163380	415.333844	-54.239696	615.937859	262.482040	
403	2.010000	-99.756378	1005.264221	352.956177	-121.217361	832.053772	339.097412	21.110956	973.541138	351.034088	73.732353	845.637390	350.343445	-115.312523	940.374878	449.037445	24.602100	672.535889	244.196793	-1.876853	664.170410	453.422302	-136.904160	718.418335	330.896515	41.704956	502.344086	208.748962	10.265070	409.172363	207.840576	142.369034	441.495941	255.181427	99.425880	261.981323	227.891403	26.327917	166.845535	197.415421	157.937790	188.119080	252.334244	69.525383	40.026730	261.202057	206.777145	49.703022	297.480377	-86.040031	502.426361	488.346130	-156.842484	440.205841	468.987549	-23.328976	400.912415	496.432648	-155.974197	271.815369	486.032898	-277.779633	274.998779	503.102264	-176.285950	178.365417	477.546875	-358.601563	137.699600	440.326294	-256.496246	41.770267	421.437073	73.811409	353.295105	244.454971	120.018684	40.805531	251.936584	-107.784187	332.733368	471.299622	-325.048279	104.689819	469.352905	117.076996	39.563465	285.682098	75.486603	350.322449	295.826385	-321.148865	108.250374	432.857605	-96.326790	325.879791	419.153687	-66.289666	610.137551	414.279141	-46.981888	616.237445	261.717222	
404	2.015000	-93.299118	1005.581421	351.780243	-114.541481	832.252319	338.516205	27.504047	973.932068	350.038361	80.378670	846.126709	349.675293	-109.252602	940.794373	447.803986	31.567480	673.100830	243.554367	5.296853	664.161987	452.387543	-130.223038	718.333496	330.829041	49.329918	503.229553	208.880508	17.791348	410.167023	207.282715	149.361557	442.260376	256.244232	105.353447	262.164703	228.024460	31.322088	168.849762	195.739014	161.990509	187.112152	253.298843	70.005318	40.626293	260.986328	207.541199	47.965412	297.461243	-76.422577	501.764923	488.352142	-146.279694	438.363800	469.747986	-11.895618	401.178040	496.468445	-145.880219	272.210999	486.688812	-267.668060	278.498230	502.412689	-168.407211	179.242783	478.519775	-350.918365	143.718292	439.834595	-253.257629	42.514576	421.680939	80.908905	354.040802	244.473038	121.571434	40.570438	251.560043	-95.335014	331.644470	472.213257	-318.810059	109.170471	469.131165	117.930962	39.252495	285.234467	81.988869	350.901398	295.850494	-314.434692	112.416954	432.660583	-84.103630	324.749908	420.023590	-58.991942	610.157330	413.224262	-39.832693	616.676455	260.921580	
405	2.020000	-86.854523	1005.990662	350.655487	-107.891273	832.550049	337.980286	33.881256	974.400757	349.102386	86.982643	846.677124	349.064697	-103.201355	941.311707	446.617523	38.421139	673.828857	242.905502	12.359525	664.191162	451.409729	-123.597870	718.355957	330.807648	56.857170	504.257172	209.026855	25.250517	411.332825	206.569824	156.194214	443.195129	257.471954	111.057846	262.394928	228.019012	36.265644	170.849289	193.747162	165.795868	186.209381	254.194855	70.372826	41.210499	260.718018	208.096237	46.693554	297.284058	-66.806381	501.202911	488.386902	-135.637360	436.578491	470.476013	-0.409459	401.631378	496.603027	-135.474792	272.723022	487.340790	-257.182343	282.035461	501.687592	-160.129303	180.263367	479.482086	-342.708984	149.662430	439.298492	-249.356750	43.642609	422.030090	87.924789	354.916748	244.432938	122.990509	40.466576	250.962067	-82.739922	330.694458	473.152069	-312.042480	113.733498	468.863861	118.584686	39.080105	284.542175	88.303818	351.566071	295.806976	-307.196533	116.647232	432.424683	-71.676811	323.753479	420.932617	-51.807652	610.223033	412.184005	-32.798078	617.252854	260.099161	
406	2.025000	-80.424118	1006.489807	349.585571	-101.267891	832.945190	337.489624	40.241524	974.945435	348.230316	93.542450	847.287720	348.513000	-97.158279	941.923828	445.481537	45.160683	674.717712	242.252319	19.303650	664.264038	450.506439	-117.026047	718.489075	330.829498	64.255173	505.391113	209.169601	32.579277	412.635193	205.716446	162.837296	444.226105	258.797485	116.492088	262.632843	227.874756	41.075321	172.756577	191.538681	169.337830	185.385071	254.994583	70.652618	41.764076	260.404968	208.476562	45.837070	296.980133	-57.234097	500.757935	488.446991	-124.964783	434.883667	471.144226	11.055187	402.285919	496.845276	-124.788315	273.356842	487.979065	-246.365402	285.576935	500.947174	-151.460770	181.421295	480.410553	-333.998138	155.463333	438.717590	-244.701981	45.180450	422.500977	94.788658	355.879608	244.317368	124.259628	40.456604	250.198502	-70.079880	329.912537	474.096283	-304.745880	118.331230	468.548340	119.055161	39.021042	283.662048	94.389275	352.279694	295.674408	-299.443970	120.903648	432.146942	-59.113338	322.923370	421.862885	-44.745040	610.336049	411.174078	-25.882689	617.961861	259.255553	
407	2.030000	-74.009285	1007.075867	348.573395	-94.672066	833.434998	337.043671	46.583832	975.564148	347.425507	100.057129	847.957764	348.020905	-91.123085	942.627075	444.398346	51.785717	675.761047	241.597443	26.124132	664.387512	449.693665	-110.503975	718.735352	330.890747	71.489914	506.591827	209.290482	39.708607	414.035461	204.743713	169.260666	445.271973	260.144562	121.611275	262.844299	227.596344	45.664127	174.499619	189.219284	172.602829	184.615189	255.672287	70.863487	42.275002	260.055145	208.715057	45.332180	296.581055	-47.744972	500.445648	488.528076	-114.307831	433.309998	471.727509	22.429800	403.152588	497.200409	-113.851334	274.115051	488.594727	-235.262329	289.083862	500.211975	-142.409775	182.706650	481.282837	-324.813354	161.052856	438.091187	-239.215561	47.128220	423.104218	101.423401	356.882111	244.109055	125.363800	40.505554	249.330322	-57.430008	329.322845	475.026276	-296.920959	122.906403	468.182068	119.363052	39.049675	282.659424	100.201614	353.003448	295.432800	-291.185608	125.140411	431.824066	-46.476841	322.288971	422.796112	-37.810217	610.498627	410.210346	-19.089316	618.795964	258.397871	
